<svg width="1600" height="1200" viewBox="0 0 1600 1200" fill="none" xmlns="http://www.w3.org/2000/svg">
  <rect width="1600" height="1200" rx="40" fill="#FFF5ED"/>
  <rect x="88" y="88" width="1424" height="1024" rx="32" fill="url(#bg)"/>
  <rect x="148" y="160" width="520" height="352" rx="28" fill="#FFFFFF" fill-opacity="0.96" stroke="#F4DCC8"/>
  <text x="196" y="224" fill="#A84400" font-size="28" font-family="Arial, sans-serif" font-weight="700">Core Banking Layer</text>
  <text x="196" y="270" fill="#4A3B30" font-size="22" font-family="Arial, sans-serif">Products, accounts, workflow control, reporting</text>
  <rect x="196" y="316" width="424" height="18" rx="9" fill="#FFE2CC"/>
  <rect x="196" y="358" width="388" height="18" rx="9" fill="#FFE2CC"/>
  <rect x="196" y="400" width="296" height="18" rx="9" fill="#FFE2CC"/>
  <rect x="742" y="160" width="710" height="352" rx="28" fill="#1E1B18"/>
  <text x="790" y="224" fill="#F7F2ED" font-size="28" font-family="Arial, sans-serif" font-weight="700">Digital & Onboarding</text>
  <rect x="790" y="276" width="264" height="148" rx="24" fill="#2A2622"/>
  <rect x="1080" y="276" width="324" height="148" rx="24" fill="#2A2622"/>
  <text x="828" y="334" fill="#F7F2ED" font-size="22" font-family="Arial, sans-serif">Mobile Banking</text>
  <text x="828" y="370" fill="#BAADA2" font-size="18" font-family="Arial, sans-serif">Customer channels</text>
  <text x="1118" y="334" fill="#F7F2ED" font-size="22" font-family="Arial, sans-serif">Remote Onboarding</text>
  <text x="1118" y="370" fill="#BAADA2" font-size="18" font-family="Arial, sans-serif">Faster activation</text>
  <rect x="148" y="584" width="1304" height="248" rx="28" fill="#FFFFFF" fill-opacity="0.96" stroke="#F4DCC8"/>
  <text x="196" y="648" fill="#A84400" font-size="28" font-family="Arial, sans-serif" font-weight="700">Integration Layer</text>
  <text x="196" y="694" fill="#4A3B30" font-size="22" font-family="Arial, sans-serif">Card systems, ERP, notifications, operational APIs</text>
  <line x1="334" y1="512" x2="334" y2="584" stroke="#FD6601" stroke-width="8" stroke-linecap="round"/>
  <line x1="1098" y1="512" x2="1098" y2="584" stroke="#FD6601" stroke-width="8" stroke-linecap="round"/>
  <rect x="196" y="728" width="210" height="56" rx="16" fill="#FFF1E6"/>
  <rect x="436" y="728" width="210" height="56" rx="16" fill="#FFF1E6"/>
  <rect x="676" y="728" width="210" height="56" rx="16" fill="#FFF1E6"/>
  <rect x="916" y="728" width="210" height="56" rx="16" fill="#FFF1E6"/>
  <rect x="1156" y="728" width="210" height="56" rx="16" fill="#FFF1E6"/>
  <text x="230" y="763" fill="#733000" font-size="19" font-family="Arial, sans-serif">Card APIs</text>
  <text x="470" y="763" fill="#733000" font-size="19" font-family="Arial, sans-serif">ERP Connectors</text>
  <text x="710" y="763" fill="#733000" font-size="19" font-family="Arial, sans-serif">Event Bus</text>
  <text x="950" y="763" fill="#733000" font-size="19" font-family="Arial, sans-serif">Notifications</text>
  <text x="1190" y="763" fill="#733000" font-size="19" font-family="Arial, sans-serif">Reporting</text>
  <rect x="148" y="904" width="1304" height="136" rx="28" fill="#251A11"/>
  <text x="196" y="968" fill="#FFF6F0" font-size="28" font-family="Arial, sans-serif" font-weight="700">Infrastructure & Delivery Governance</text>
  <text x="196" y="1014" fill="#D8C2B0" font-size="22" font-family="Arial, sans-serif">Branch systems, ATM/POS, server readiness, rollout, support</text>
  <defs>
    <linearGradient id="bg" x1="88" y1="88" x2="1512" y2="1112" gradientUnits="userSpaceOnUse">
      <stop stop-color="#FFF7F1"/>
      <stop offset="1" stop-color="#FFEBDD"/>
    </linearGradient>
  </defs>
</svg>
