<svg width="1600" height="1200" viewBox="0 0 1600 1200" fill="none" xmlns="http://www.w3.org/2000/svg">
  <rect width="1600" height="1200" rx="40" fill="#FFF8F2"/>
  <circle cx="800" cy="600" r="188" fill="#FD6601"/>
  <text x="702" y="590" fill="#FFFDFB" font-size="34" font-family="Arial, sans-serif" font-weight="700">Core Banking</text>
  <text x="696" y="634" fill="#FFE4CF" font-size="22" font-family="Arial, sans-serif">Operating backbone</text>
  <circle cx="800" cy="220" r="132" fill="#1E1B18"/>
  <circle cx="1180" cy="430" r="132" fill="#FFFFFF" stroke="#EFD6C1" stroke-width="12"/>
  <circle cx="1180" cy="770" r="132" fill="#FFFFFF" stroke="#EFD6C1" stroke-width="12"/>
  <circle cx="800" cy="980" r="132" fill="#1E1B18"/>
  <circle cx="420" cy="770" r="132" fill="#FFFFFF" stroke="#EFD6C1" stroke-width="12"/>
  <circle cx="420" cy="430" r="132" fill="#FFFFFF" stroke="#EFD6C1" stroke-width="12"/>
  <line x1="800" y1="412" x2="800" y2="352" stroke="#FD6601" stroke-width="8" stroke-linecap="round"/>
  <line x1="962" y1="494" x2="1038" y2="458" stroke="#FD6601" stroke-width="8" stroke-linecap="round"/>
  <line x1="962" y1="706" x2="1038" y2="742" stroke="#FD6601" stroke-width="8" stroke-linecap="round"/>
  <line x1="800" y1="788" x2="800" y2="848" stroke="#FD6601" stroke-width="8" stroke-linecap="round"/>
  <line x1="638" y1="706" x2="562" y2="742" stroke="#FD6601" stroke-width="8" stroke-linecap="round"/>
  <line x1="638" y1="494" x2="562" y2="458" stroke="#FD6601" stroke-width="8" stroke-linecap="round"/>
  <text x="724" y="226" fill="#FFF6F0" font-size="26" font-family="Arial, sans-serif" font-weight="700">Digital</text>
  <text x="708" y="260" fill="#D8C2B0" font-size="20" font-family="Arial, sans-serif">Channels</text>
  <text x="1100" y="436" fill="#733000" font-size="26" font-family="Arial, sans-serif" font-weight="700">Payments</text>
  <text x="1082" y="470" fill="#8C5A33" font-size="20" font-family="Arial, sans-serif">Connectivity</text>
  <text x="1080" y="776" fill="#733000" font-size="26" font-family="Arial, sans-serif" font-weight="700">Notification</text>
  <text x="1110" y="810" fill="#8C5A33" font-size="20" font-family="Arial, sans-serif">Layer</text>
  <text x="728" y="986" fill="#FFF6F0" font-size="26" font-family="Arial, sans-serif" font-weight="700">Integration</text>
  <text x="732" y="1020" fill="#D8C2B0" font-size="20" font-family="Arial, sans-serif">Architecture</text>
  <text x="320" y="776" fill="#733000" font-size="26" font-family="Arial, sans-serif" font-weight="700">Onboarding</text>
  <text x="340" y="810" fill="#8C5A33" font-size="20" font-family="Arial, sans-serif">Flow</text>
  <text x="336" y="436" fill="#733000" font-size="26" font-family="Arial, sans-serif" font-weight="700">Infrastructure</text>
  <text x="344" y="470" fill="#8C5A33" font-size="20" font-family="Arial, sans-serif">Enablement</text>
</svg>
