<svg xmlns="http://www.w3.org/2000/svg" viewBox="0 0 64 64">
  <defs>
    <linearGradient id="g" x1="0" x2="1" y1="0" y2="1">
      <stop offset="0%" stop-color="#0c1c31"/>
      <stop offset="100%" stop-color="#0f766e"/>
    </linearGradient>
  </defs>
  <rect width="64" height="64" rx="18" fill="url(#g)"/>
  <path d="M41.5 20.5c-2.9-2.1-6-3-10.1-3-9.7 0-16 6.4-16 14.6 0 8.6 6.3 14.5 16 14.5 4 0 7-.9 10.1-3v-7.1h-9v-6.4H49v16.2c-4.7 4-10.8 6.2-17.8 6.2-13.7 0-23.7-9-23.7-20.4 0-11.4 10-20.5 23.7-20.5 7.1 0 13.2 2.1 17.8 6.2l-7.5 4.7Z" fill="#f4f7fb"/>
</svg>
